<mxfile host="app.diagrams.net" modified="2022-08-17T15:05:52.926Z" agent="5.0 (X11; Linux x86_64) AppleWebKit/537.36 (KHTML, like Gecko) Chrome/104.0.5112.81 Safari/537.36" etag="4sTA_x_RnyMXuIvQWBUa" version="20.2.4" type="github">
  <diagram id="6a731a19-8d31-9384-78a2-239565b7b9f0" name="Page-1">
    <mxGraphModel dx="2909" dy="2396" grid="1" gridSize="10" guides="1" tooltips="1" connect="1" arrows="1" fold="1" page="1" pageScale="1" pageWidth="1169" pageHeight="827" background="none" math="0" shadow="0">
      <root>
        <mxCell id="0" />
        <mxCell id="1" parent="0" />
        <mxCell id="1350" value="Photo-systeme" style="ellipse;whiteSpace=wrap;html=1;shadow=0;fontFamily=Helvetica;fontSize=20;fontColor=#FFFFFF;align=center;strokeWidth=3;fillColor=#1699D3;strokeColor=none;" parent="1" vertex="1">
          <mxGeometry x="723.5" y="174" width="120" height="120" as="geometry" />
        </mxCell>
        <mxCell id="1351" value="Diatomeen" style="ellipse;whiteSpace=wrap;html=1;shadow=0;fontFamily=Helvetica;fontSize=20;fontColor=#FFFFFF;align=center;strokeWidth=3;fillColor=#F08705;strokeColor=none;gradientColor=none;" parent="1" vertex="1">
          <mxGeometry x="1103.5" y="241.5" width="120" height="120" as="geometry" />
        </mxCell>
        <mxCell id="1352" value="Diversität" style="ellipse;whiteSpace=wrap;html=1;shadow=0;fontFamily=Helvetica;fontSize=20;fontColor=#FFFFFF;align=center;strokeWidth=3;fillColor=#E85642;strokeColor=none;" parent="1" vertex="1">
          <mxGeometry x="1701" y="356.5" width="120" height="120" as="geometry" />
        </mxCell>
        <mxCell id="1353" value="Licht-rezeptoren" style="ellipse;whiteSpace=wrap;html=1;shadow=0;fontFamily=Helvetica;fontSize=20;fontColor=#FFFFFF;align=center;strokeWidth=3;fillColor=#1699D3;strokeColor=none;" parent="1" vertex="1">
          <mxGeometry x="1936" y="806.5" width="120" height="120" as="geometry" />
        </mxCell>
        <mxCell id="1354" value="NPQ" style="ellipse;whiteSpace=wrap;html=1;shadow=0;fontFamily=Helvetica;fontSize=20;fontColor=#FFFFFF;align=center;strokeWidth=3;fillColor=#736ca8;strokeColor=none;" parent="1" vertex="1">
          <mxGeometry x="1711" y="1171.5" width="120" height="120" as="geometry" />
        </mxCell>
        <mxCell id="1355" value="Signale" style="ellipse;whiteSpace=wrap;html=1;shadow=0;fontFamily=Helvetica;fontSize=20;fontColor=#FFFFFF;align=center;strokeWidth=3;fillColor=#F08705;strokeColor=none;" parent="1" vertex="1">
          <mxGeometry x="1163.5" y="1309" width="120" height="120" as="geometry" />
        </mxCell>
        <mxCell id="1356" value="Plastidäre Protein-&lt;br&gt;komplexe" style="ellipse;whiteSpace=wrap;html=1;shadow=0;fontFamily=Helvetica;fontSize=20;fontColor=#FFFFFF;align=center;strokeWidth=3;fillColor=#E85642;strokeColor=none;" parent="1" vertex="1">
          <mxGeometry x="558.5" y="1171.5" width="120" height="120" as="geometry" />
        </mxCell>
        <mxCell id="1359" style="endArrow=none;strokeWidth=6;strokeColor=#1699D3;html=1;" parent="1" source="1515" target="1350" edge="1">
          <mxGeometry relative="1" as="geometry" />
        </mxCell>
        <mxCell id="1360" style="endArrow=none;strokeWidth=6;strokeColor=#f08705;html=1;" parent="1" source="1515" target="1351" edge="1">
          <mxGeometry relative="1" as="geometry" />
        </mxCell>
        <mxCell id="1361" style="endArrow=none;strokeWidth=6;strokeColor=#E85642;html=1;" parent="1" source="1515" target="1352" edge="1">
          <mxGeometry relative="1" as="geometry" />
        </mxCell>
        <mxCell id="1362" style="endArrow=none;strokeWidth=6;strokeColor=#1699D3;html=1;" parent="1" source="1515" target="1353" edge="1">
          <mxGeometry relative="1" as="geometry" />
        </mxCell>
        <mxCell id="1363" style="endArrow=none;strokeWidth=6;strokeColor=#736CA8;html=1;" parent="1" source="1515" target="1516" edge="1">
          <mxGeometry relative="1" as="geometry" />
        </mxCell>
        <mxCell id="1364" style="endArrow=none;strokeWidth=6;strokeColor=#736ca8;html=1;" parent="1" source="1515" target="1354" edge="1">
          <mxGeometry relative="1" as="geometry" />
        </mxCell>
        <mxCell id="1365" value="" style="edgeStyle=none;endArrow=none;strokeWidth=6;strokeColor=#F08705;html=1;" parent="1" source="1515" target="1355" edge="1">
          <mxGeometry x="181" y="226.5" width="100" height="100" as="geometry">
            <mxPoint x="181" y="326.5" as="sourcePoint" />
            <mxPoint x="281" y="226.5" as="targetPoint" />
          </mxGeometry>
        </mxCell>
        <mxCell id="1366" value="" style="edgeStyle=none;endArrow=none;strokeWidth=6;strokeColor=#E85642;html=1;" parent="1" source="1515" target="1356" edge="1">
          <mxGeometry x="181" y="226.5" width="100" height="100" as="geometry">
            <mxPoint x="181" y="326.5" as="sourcePoint" />
            <mxPoint x="281" y="226.5" as="targetPoint" />
          </mxGeometry>
        </mxCell>
        <mxCell id="MPsrmtgidOlGMuhGrePb-1545" style="rounded=0;orthogonalLoop=1;jettySize=auto;html=1;entryX=0.25;entryY=1;entryDx=0;entryDy=0;" edge="1" parent="1" source="1367" target="1373">
          <mxGeometry relative="1" as="geometry" />
        </mxCell>
        <mxCell id="1367" value="PSII&lt;br&gt;dimer" style="rounded=1;fillColor=#64BBE2;strokeColor=none;strokeWidth=3;shadow=0;html=1;fontColor=#FFFFFF;" parent="1" vertex="1">
          <mxGeometry x="443.5" y="-127.5" width="130" height="40" as="geometry" />
        </mxCell>
        <mxCell id="1368" value="moderately" style="rounded=1;fillColor=#64BBE2;strokeColor=none;strokeWidth=3;shadow=0;html=1;fontColor=#FFFFFF;" parent="1" vertex="1">
          <mxGeometry x="266.11" y="-62.80000000000001" width="130" height="40" as="geometry" />
        </mxCell>
        <mxCell id="1369" value="LHCII" style="rounded=1;fillColor=#64BBE2;strokeColor=none;strokeWidth=3;shadow=0;html=1;fontColor=#FFFFFF;" parent="1" vertex="1">
          <mxGeometry x="270" y="49" width="130" height="40" as="geometry" />
        </mxCell>
        <mxCell id="1370" value="Phycobilisom&lt;br&gt;bei Cyanoartigen/Rotalgen" style="rounded=1;fillColor=#64BBE2;strokeColor=none;strokeWidth=3;shadow=0;html=1;fontColor=#FFFFFF;" parent="1" vertex="1">
          <mxGeometry x="570" y="-257.5" width="161.75" height="43.5" as="geometry" />
        </mxCell>
        <mxCell id="1371" value="ATP-synthase" style="rounded=1;fillColor=#64BBE2;strokeColor=none;strokeWidth=3;shadow=0;html=1;fontColor=#FFFFFF;" parent="1" vertex="1">
          <mxGeometry x="464.38" y="64" width="130" height="40" as="geometry" />
        </mxCell>
        <mxCell id="1372" value="Allgemeiner Aufbau" style="rounded=1;fillColor=#64BBE2;strokeColor=none;strokeWidth=3;shadow=0;html=1;fontColor=#FFFFFF;" parent="1" vertex="1">
          <mxGeometry x="638.54" y="-16" width="130" height="40" as="geometry" />
        </mxCell>
        <mxCell id="MPsrmtgidOlGMuhGrePb-1546" style="edgeStyle=none;rounded=0;orthogonalLoop=1;jettySize=auto;html=1;" edge="1" parent="1" source="1373" target="1374">
          <mxGeometry relative="1" as="geometry" />
        </mxCell>
        <mxCell id="1373" value="Plastoquinon" style="rounded=1;fillColor=#64BBE2;strokeColor=none;strokeWidth=3;shadow=0;html=1;fontColor=#FFFFFF;" parent="1" vertex="1">
          <mxGeometry x="748.5" y="-217.5" width="130" height="40" as="geometry" />
        </mxCell>
        <mxCell id="MPsrmtgidOlGMuhGrePb-1547" style="edgeStyle=none;rounded=0;orthogonalLoop=1;jettySize=auto;html=1;" edge="1" parent="1" source="1374" target="1375">
          <mxGeometry relative="1" as="geometry" />
        </mxCell>
        <mxCell id="1374" value="Cryptochrom b6f" style="rounded=1;fillColor=#64BBE2;strokeColor=none;strokeWidth=3;shadow=0;html=1;fontColor=#FFFFFF;" parent="1" vertex="1">
          <mxGeometry x="802.79" y="-77.5" width="130" height="40" as="geometry" />
        </mxCell>
        <mxCell id="MPsrmtgidOlGMuhGrePb-1548" value="" style="edgeStyle=none;rounded=0;orthogonalLoop=1;jettySize=auto;html=1;" edge="1" parent="1" source="1375" target="1376">
          <mxGeometry relative="1" as="geometry" />
        </mxCell>
        <mxCell id="1375" value="Plastocyanin/&lt;br&gt;Cryptochrom c" style="rounded=1;fillColor=#64BBE2;strokeColor=none;strokeWidth=3;shadow=0;html=1;fontColor=#FFFFFF;" parent="1" vertex="1">
          <mxGeometry x="823.54" y="42.5" width="130" height="40" as="geometry" />
        </mxCell>
        <mxCell id="MPsrmtgidOlGMuhGrePb-1549" style="edgeStyle=none;rounded=0;orthogonalLoop=1;jettySize=auto;html=1;" edge="1" parent="1" source="1376" target="1371">
          <mxGeometry relative="1" as="geometry" />
        </mxCell>
        <mxCell id="1376" value="PSI&lt;br&gt;trimer (Cyanoartig/Rotalgen)&lt;br&gt;monomer, sonst" style="rounded=1;fillColor=#64BBE2;strokeColor=none;strokeWidth=3;shadow=0;html=1;fontColor=#FFFFFF;" parent="1" vertex="1">
          <mxGeometry x="428.5" y="214" width="190" height="53.5" as="geometry" />
        </mxCell>
        <mxCell id="1377" value="" style="edgeStyle=none;endArrow=none;strokeWidth=3;strokeColor=#64BBE2;html=1;" parent="1" source="1350" target="1376" edge="1">
          <mxGeometry x="-21.500000000000014" y="-41" width="100" height="100" as="geometry">
            <mxPoint x="-21.500000000000014" y="59" as="sourcePoint" />
            <mxPoint x="78.5" y="-41" as="targetPoint" />
          </mxGeometry>
        </mxCell>
        <mxCell id="1378" value="" style="edgeStyle=none;endArrow=none;strokeWidth=3;strokeColor=#64BBE2;html=1;" parent="1" source="1350" target="1367" edge="1">
          <mxGeometry x="-21.500000000000014" y="-41" width="100" height="100" as="geometry">
            <mxPoint x="-21.500000000000014" y="59" as="sourcePoint" />
            <mxPoint x="78.5" y="-41" as="targetPoint" />
          </mxGeometry>
        </mxCell>
        <mxCell id="1380" value="" style="edgeStyle=none;endArrow=none;strokeWidth=3;strokeColor=#64BBE2;html=1;" parent="1" source="1369" target="1368" edge="1">
          <mxGeometry x="-273.89" y="-352.8" width="100" height="100" as="geometry">
            <mxPoint x="472.0000958317099" y="-67.50343604810433" as="sourcePoint" />
            <mxPoint x="-173.89" y="-352.8" as="targetPoint" />
          </mxGeometry>
        </mxCell>
        <mxCell id="1381" value="" style="edgeStyle=none;endArrow=none;strokeWidth=3;strokeColor=#64BBE2;html=1;" parent="1" source="1367" target="1369" edge="1">
          <mxGeometry x="-21.500000000000014" y="-41" width="100" height="100" as="geometry">
            <mxPoint x="-21.500000000000014" y="59" as="sourcePoint" />
            <mxPoint x="78.5" y="-41" as="targetPoint" />
          </mxGeometry>
        </mxCell>
        <mxCell id="1382" value="" style="edgeStyle=none;endArrow=none;strokeWidth=3;strokeColor=#64BBE2;html=1;" parent="1" source="1367" target="1370" edge="1">
          <mxGeometry x="-21.500000000000014" y="-41" width="100" height="100" as="geometry">
            <mxPoint x="-21.500000000000014" y="59" as="sourcePoint" />
            <mxPoint x="78.5" y="-41" as="targetPoint" />
          </mxGeometry>
        </mxCell>
        <mxCell id="1383" value="" style="edgeStyle=none;endArrow=none;strokeWidth=3;strokeColor=#64BBE2;html=1;" parent="1" source="1372" target="1371" edge="1">
          <mxGeometry x="-21.500000000000014" y="-41" width="100" height="100" as="geometry">
            <mxPoint x="-21.500000000000014" y="59" as="sourcePoint" />
            <mxPoint x="78.5" y="-41" as="targetPoint" />
          </mxGeometry>
        </mxCell>
        <mxCell id="1384" value="" style="edgeStyle=none;endArrow=none;strokeWidth=3;strokeColor=#64BBE2;html=1;" parent="1" source="1350" target="1372" edge="1">
          <mxGeometry x="-21.500000000000014" y="-41" width="100" height="100" as="geometry">
            <mxPoint x="-21.500000000000014" y="59" as="sourcePoint" />
            <mxPoint x="78.5" y="-41" as="targetPoint" />
          </mxGeometry>
        </mxCell>
        <mxCell id="1385" value="" style="edgeStyle=none;endArrow=none;strokeWidth=3;strokeColor=#64BBE2;html=1;" parent="1" source="1372" target="1373" edge="1">
          <mxGeometry x="-21.500000000000014" y="-41" width="100" height="100" as="geometry">
            <mxPoint x="-21.500000000000014" y="59" as="sourcePoint" />
            <mxPoint x="78.5" y="-41" as="targetPoint" />
          </mxGeometry>
        </mxCell>
        <mxCell id="1386" value="" style="edgeStyle=none;endArrow=none;strokeWidth=3;strokeColor=#64BBE2;html=1;" parent="1" source="1372" target="1374" edge="1">
          <mxGeometry x="-21.500000000000014" y="-41" width="100" height="100" as="geometry">
            <mxPoint x="-21.500000000000014" y="59" as="sourcePoint" />
            <mxPoint x="78.5" y="-41" as="targetPoint" />
          </mxGeometry>
        </mxCell>
        <mxCell id="1387" value="" style="edgeStyle=none;endArrow=none;strokeWidth=3;strokeColor=#64BBE2;html=1;" parent="1" source="1372" target="1375" edge="1">
          <mxGeometry x="-21.500000000000014" y="-41" width="100" height="100" as="geometry">
            <mxPoint x="-21.500000000000014" y="59" as="sourcePoint" />
            <mxPoint x="78.5" y="-41" as="targetPoint" />
          </mxGeometry>
        </mxCell>
        <mxCell id="1392" value="CRISPR-Cas9" style="rounded=1;fillColor=#f5af58;strokeColor=none;strokeWidth=3;shadow=0;html=1;fontColor=#FFFFFF;" parent="1" vertex="1">
          <mxGeometry x="1210" y="161.5" width="120" height="40" as="geometry" />
        </mxCell>
        <mxCell id="1393" value="TALEN" style="rounded=1;fillColor=#f5af58;strokeColor=none;strokeWidth=3;shadow=0;html=1;fontColor=#FFFFFF;" parent="1" vertex="1">
          <mxGeometry x="1370" y="186.5" width="120" height="40" as="geometry" />
        </mxCell>
        <mxCell id="1394" value="Knock-Out" style="rounded=1;fillColor=#f5af58;strokeColor=none;strokeWidth=3;shadow=0;html=1;fontColor=#FFFFFF;" parent="1" vertex="1">
          <mxGeometry x="1255.25" y="271.5" width="120" height="40" as="geometry" />
        </mxCell>
        <mxCell id="1395" value="Episomen" style="rounded=1;fillColor=#f5af58;strokeColor=none;strokeWidth=3;shadow=0;html=1;fontColor=#FFFFFF;" parent="1" vertex="1">
          <mxGeometry x="1370" y="316.5" width="120" height="40" as="geometry" />
        </mxCell>
        <mxCell id="1396" value="Elektroporation" style="rounded=1;fillColor=#f5af58;strokeColor=none;strokeWidth=3;shadow=0;html=1;fontColor=#FFFFFF;" parent="1" vertex="1">
          <mxGeometry x="1390" y="396.5" width="120" height="40" as="geometry" />
        </mxCell>
        <mxCell id="1397" value="Biolistisch" style="rounded=1;fillColor=#f5af58;strokeColor=none;strokeWidth=3;shadow=0;html=1;fontColor=#FFFFFF;" parent="1" vertex="1">
          <mxGeometry x="1238.5" y="476.5" width="120" height="40" as="geometry" />
        </mxCell>
        <mxCell id="1398" value="Molecular Tools" style="rounded=1;fillColor=#f5af58;strokeColor=none;strokeWidth=3;shadow=0;html=1;fontColor=#FFFFFF;" parent="1" vertex="1">
          <mxGeometry x="1238.5" y="401.5" width="120" height="40" as="geometry" />
        </mxCell>
        <mxCell id="1404" value="" style="edgeStyle=none;endArrow=none;strokeWidth=3;strokeColor=#F5AF58;html=1;" parent="1" source="1394" target="1392" edge="1">
          <mxGeometry x="3.5" y="21.5" width="100" height="100" as="geometry">
            <mxPoint x="3.5" y="121.5" as="sourcePoint" />
            <mxPoint x="103.5" y="21.5" as="targetPoint" />
          </mxGeometry>
        </mxCell>
        <mxCell id="1405" value="" style="edgeStyle=none;endArrow=none;strokeWidth=3;strokeColor=#F5AF58;html=1;" parent="1" source="1394" target="1393" edge="1">
          <mxGeometry x="3.5" y="21.5" width="100" height="100" as="geometry">
            <mxPoint x="3.5" y="121.5" as="sourcePoint" />
            <mxPoint x="103.5" y="21.5" as="targetPoint" />
          </mxGeometry>
        </mxCell>
        <mxCell id="1406" value="" style="edgeStyle=none;endArrow=none;strokeWidth=3;strokeColor=#F5AF58;html=1;" parent="1" source="1398" target="1394" edge="1">
          <mxGeometry x="3.5" y="21.5" width="100" height="100" as="geometry">
            <mxPoint x="3.5" y="121.5" as="sourcePoint" />
            <mxPoint x="103.5" y="21.5" as="targetPoint" />
          </mxGeometry>
        </mxCell>
        <mxCell id="1407" value="" style="edgeStyle=none;endArrow=none;strokeWidth=3;strokeColor=#F5AF58;html=1;" parent="1" source="1398" target="1395" edge="1">
          <mxGeometry x="3.5" y="21.5" width="100" height="100" as="geometry">
            <mxPoint x="3.5" y="121.5" as="sourcePoint" />
            <mxPoint x="103.5" y="21.5" as="targetPoint" />
          </mxGeometry>
        </mxCell>
        <mxCell id="1408" value="" style="edgeStyle=none;endArrow=none;strokeWidth=3;strokeColor=#F5AF58;html=1;" parent="1" source="1398" target="1396" edge="1">
          <mxGeometry x="3.5" y="21.5" width="100" height="100" as="geometry">
            <mxPoint x="3.5" y="121.5" as="sourcePoint" />
            <mxPoint x="103.5" y="21.5" as="targetPoint" />
          </mxGeometry>
        </mxCell>
        <mxCell id="1409" value="" style="edgeStyle=none;endArrow=none;strokeWidth=3;strokeColor=#F5AF58;html=1;" parent="1" source="1398" target="1397" edge="1">
          <mxGeometry x="3.5" y="21.5" width="100" height="100" as="geometry">
            <mxPoint x="3.5" y="121.5" as="sourcePoint" />
            <mxPoint x="103.5" y="21.5" as="targetPoint" />
          </mxGeometry>
        </mxCell>
        <mxCell id="1410" value="" style="edgeStyle=none;endArrow=none;strokeWidth=3;strokeColor=#F5AF58;html=1;" parent="1" source="1351" target="1398" edge="1">
          <mxGeometry x="3.5" y="21.5" width="100" height="100" as="geometry">
            <mxPoint x="3.5" y="121.5" as="sourcePoint" />
            <mxPoint x="103.5" y="21.5" as="targetPoint" />
          </mxGeometry>
        </mxCell>
        <mxCell id="1411" value="Rotalgen&lt;br&gt;Chl a&lt;br&gt;Luthein" style="rounded=1;fillColor=#f08e81;strokeColor=none;strokeWidth=3;shadow=0;html=1;fontColor=#FFFFFF;" parent="1" vertex="1">
          <mxGeometry x="1611" y="516.5" width="120" height="40" as="geometry" />
        </mxCell>
        <mxCell id="1412" value="Grundschema Thylakoidmembran&lt;br&gt;&lt;ul&gt;&lt;li&gt;PSII&lt;/li&gt;&lt;li&gt;Plastochinonpool&lt;/li&gt;&lt;li&gt;Cytochrom b6f&lt;br&gt;&lt;/li&gt;&lt;li&gt;Plastocyanin/Cytochrom c&lt;/li&gt;&lt;li&gt;PSI&lt;/li&gt;&lt;li&gt;ATP-synthase&lt;/li&gt;&lt;/ul&gt;" style="rounded=1;fillColor=#f08e81;strokeColor=none;strokeWidth=3;shadow=0;html=1;fontColor=#FFFFFF;align=left;" parent="1" vertex="1">
          <mxGeometry x="2036" y="361.5" width="214" height="148.5" as="geometry" />
        </mxCell>
        <mxCell id="1413" value="Braunalgen&lt;br&gt;Chl a, c&lt;br&gt;Fucoxanthin, Peridinin, Alloxanthin" style="rounded=1;fillColor=#f08e81;strokeColor=none;strokeWidth=3;shadow=0;html=1;fontColor=#FFFFFF;" parent="1" vertex="1">
          <mxGeometry x="1420" y="436.5" width="191" height="63.5" as="geometry" />
        </mxCell>
        <mxCell id="1414" value="Dreier Thylakoid Stapel" style="rounded=1;fillColor=#f08e81;strokeColor=none;strokeWidth=3;shadow=0;html=1;fontColor=#FFFFFF;" parent="1" vertex="1">
          <mxGeometry x="1500" y="371.5" width="141" height="38.5" as="geometry" />
        </mxCell>
        <mxCell id="1418" value="Nucleomorph&lt;br&gt;Relikt des Endosymbionten Zellkerns&lt;br&gt;Mit eigener Transkription" style="rounded=1;fillColor=#f08e81;strokeColor=none;strokeWidth=3;shadow=0;html=1;fontColor=#FFFFFF;" parent="1" vertex="1">
          <mxGeometry x="1566" y="721.5" width="210" height="48.5" as="geometry" />
        </mxCell>
        <mxCell id="1419" value="Sekundäre Endosymbiose" style="rounded=1;fillColor=#f08e81;strokeColor=none;strokeWidth=3;shadow=0;html=1;fontColor=#FFFFFF;" parent="1" vertex="1">
          <mxGeometry x="1680" y="643.75" width="144" height="48.5" as="geometry" />
        </mxCell>
        <mxCell id="1420" value="Grünalgen&lt;br&gt;Chl a, b&lt;br&gt;Luthein" style="rounded=1;fillColor=#f08e81;strokeColor=none;strokeWidth=3;shadow=0;html=1;fontColor=#FFFFFF;" parent="1" vertex="1">
          <mxGeometry x="1741" y="570" width="120" height="40" as="geometry" />
        </mxCell>
        <mxCell id="1421" value="Einzelne Thylakoid Bilayer mit &lt;br&gt;Phycobilisom auf PSII" style="rounded=1;fillColor=#f08e81;strokeColor=none;strokeWidth=3;shadow=0;html=1;fontColor=#FFFFFF;" parent="1" vertex="1">
          <mxGeometry x="1510" y="616.5" width="170" height="41.5" as="geometry" />
        </mxCell>
        <mxCell id="1422" value="Grana Thylakoidstapel&lt;br&gt;Stroma Thylakoide" style="rounded=1;fillColor=#f08e81;strokeColor=none;strokeWidth=3;shadow=0;html=1;fontColor=#FFFFFF;" parent="1" vertex="1">
          <mxGeometry x="1876" y="461.5" width="120" height="40" as="geometry" />
        </mxCell>
        <mxCell id="1423" value="" style="edgeStyle=none;endArrow=none;strokeWidth=3;strokeColor=#F08E81;html=1;" parent="1" source="1352" target="1411" edge="1">
          <mxGeometry x="31" y="106.5" width="100" height="100" as="geometry">
            <mxPoint x="31" y="206.5" as="sourcePoint" />
            <mxPoint x="131" y="106.5" as="targetPoint" />
          </mxGeometry>
        </mxCell>
        <mxCell id="1424" value="" style="edgeStyle=none;endArrow=none;strokeWidth=3;strokeColor=#F08E81;html=1;" parent="1" source="1352" target="1413" edge="1">
          <mxGeometry x="31" y="106.5" width="100" height="100" as="geometry">
            <mxPoint x="31" y="206.5" as="sourcePoint" />
            <mxPoint x="131" y="106.5" as="targetPoint" />
          </mxGeometry>
        </mxCell>
        <mxCell id="1425" value="" style="edgeStyle=none;endArrow=none;strokeWidth=3;strokeColor=#F08E81;html=1;" parent="1" source="1413" target="1414" edge="1">
          <mxGeometry x="31" y="106.5" width="100" height="100" as="geometry">
            <mxPoint x="31" y="206.5" as="sourcePoint" />
            <mxPoint x="131" y="106.5" as="targetPoint" />
          </mxGeometry>
        </mxCell>
        <mxCell id="1429" value="" style="edgeStyle=none;endArrow=none;strokeWidth=3;strokeColor=#F08E81;html=1;" parent="1" source="1419" target="1418" edge="1">
          <mxGeometry x="31" y="106.5" width="100" height="100" as="geometry">
            <mxPoint x="31" y="206.5" as="sourcePoint" />
            <mxPoint x="131" y="106.5" as="targetPoint" />
          </mxGeometry>
        </mxCell>
        <mxCell id="1430" value="" style="edgeStyle=none;endArrow=none;strokeWidth=3;strokeColor=#F08E81;html=1;" parent="1" source="1352" target="1419" edge="1">
          <mxGeometry x="31" y="106.5" width="100" height="100" as="geometry">
            <mxPoint x="31" y="206.5" as="sourcePoint" />
            <mxPoint x="131" y="106.5" as="targetPoint" />
          </mxGeometry>
        </mxCell>
        <mxCell id="1431" value="" style="edgeStyle=none;endArrow=none;strokeWidth=3;strokeColor=#F08E81;html=1;" parent="1" source="1352" target="1412" edge="1">
          <mxGeometry x="31" y="106.5" width="100" height="100" as="geometry">
            <mxPoint x="31" y="206.5" as="sourcePoint" />
            <mxPoint x="131" y="106.5" as="targetPoint" />
          </mxGeometry>
        </mxCell>
        <mxCell id="1432" value="" style="edgeStyle=none;endArrow=none;strokeWidth=3;strokeColor=#F08E81;html=1;" parent="1" source="1420" target="1422" edge="1">
          <mxGeometry x="31" y="106.5" width="100" height="100" as="geometry">
            <mxPoint x="31" y="206.5" as="sourcePoint" />
            <mxPoint x="131" y="106.5" as="targetPoint" />
          </mxGeometry>
        </mxCell>
        <mxCell id="1433" value="" style="edgeStyle=none;endArrow=none;strokeWidth=3;strokeColor=#F08E81;html=1;" parent="1" source="1411" target="1421" edge="1">
          <mxGeometry x="31" y="106.5" width="100" height="100" as="geometry">
            <mxPoint x="31" y="206.5" as="sourcePoint" />
            <mxPoint x="131" y="106.5" as="targetPoint" />
          </mxGeometry>
        </mxCell>
        <mxCell id="1434" value="" style="edgeStyle=none;endArrow=none;strokeWidth=3;strokeColor=#F08E81;html=1;" parent="1" source="1352" target="1420" edge="1">
          <mxGeometry x="31" y="106.5" width="100" height="100" as="geometry">
            <mxPoint x="31" y="206.5" as="sourcePoint" />
            <mxPoint x="131" y="106.5" as="targetPoint" />
          </mxGeometry>
        </mxCell>
        <mxCell id="1438" value="UVR8&lt;br&gt;&lt;span style=&quot;font-size: 12px;&quot;&gt;Chromophoren: Tryptophan&lt;/span&gt;" style="rounded=1;fillColor=#64BBE2;strokeColor=none;strokeWidth=3;shadow=0;html=1;fontColor=#FFFFFF;" parent="1" vertex="1">
          <mxGeometry x="2056" y="616.5" width="154" height="33.5" as="geometry" />
        </mxCell>
        <mxCell id="1439" value="Cryptochrom&lt;br&gt;&lt;span style=&quot;font-size: 12px;&quot;&gt;Chromophoren: FAD (Flavin)&lt;/span&gt;" style="rounded=1;fillColor=#64BBE2;strokeColor=none;strokeWidth=3;shadow=0;html=1;fontColor=#FFFFFF;" parent="1" vertex="1">
          <mxGeometry x="2101" y="706.5" width="159" height="33.5" as="geometry" />
        </mxCell>
        <mxCell id="1440" value="LOV (light oxigen voltage)&lt;br&gt;&lt;span style=&quot;font-size: 12px;&quot;&gt;Chromophoren: Flavin&lt;/span&gt;" style="rounded=1;fillColor=#64BBE2;strokeColor=none;strokeWidth=3;shadow=0;html=1;fontColor=#FFFFFF;" parent="1" vertex="1">
          <mxGeometry x="2171" y="786.5" width="149" height="43.5" as="geometry" />
        </mxCell>
        <mxCell id="1441" value="Photolyasen&lt;br&gt;gehören zur Familie der Cryptochrome&lt;br&gt;Reparieren DNA nach UV Schäden" style="rounded=1;fillColor=#64BBE2;strokeColor=none;strokeWidth=3;shadow=0;html=1;fontColor=#FFFFFF;" parent="1" vertex="1">
          <mxGeometry x="2121" y="966.5" width="229" height="43.5" as="geometry" />
        </mxCell>
        <mxCell id="1442" value="Phytochrome&lt;br&gt;Chromophoren:&amp;nbsp;Phytochromobilin" style="rounded=1;fillColor=#64BBE2;strokeColor=none;strokeWidth=3;shadow=0;html=1;fontColor=#FFFFFF;" parent="1" vertex="1">
          <mxGeometry x="2181" y="871.5" width="199" height="48.5" as="geometry" />
        </mxCell>
        <mxCell id="1449" value="" style="edgeStyle=none;endArrow=none;strokeWidth=3;strokeColor=#64BBE2;html=1;" parent="1" source="1353" target="1438" edge="1">
          <mxGeometry x="-24" y="196.5" width="100" height="100" as="geometry">
            <mxPoint x="-24" y="296.5" as="sourcePoint" />
            <mxPoint x="76" y="196.5" as="targetPoint" />
          </mxGeometry>
        </mxCell>
        <mxCell id="1450" value="" style="edgeStyle=none;endArrow=none;strokeWidth=3;strokeColor=#64BBE2;html=1;" parent="1" source="1353" target="1439" edge="1">
          <mxGeometry x="-24" y="196.5" width="100" height="100" as="geometry">
            <mxPoint x="-24" y="296.5" as="sourcePoint" />
            <mxPoint x="76" y="196.5" as="targetPoint" />
          </mxGeometry>
        </mxCell>
        <mxCell id="1451" value="" style="edgeStyle=none;endArrow=none;strokeWidth=3;strokeColor=#64BBE2;html=1;" parent="1" source="1353" target="1440" edge="1">
          <mxGeometry x="-24" y="196.5" width="100" height="100" as="geometry">
            <mxPoint x="-24" y="296.5" as="sourcePoint" />
            <mxPoint x="76" y="196.5" as="targetPoint" />
          </mxGeometry>
        </mxCell>
        <mxCell id="1452" value="" style="edgeStyle=none;endArrow=none;strokeWidth=3;strokeColor=#64BBE2;html=1;" parent="1" source="1353" target="1442" edge="1">
          <mxGeometry x="-24" y="196.5" width="100" height="100" as="geometry">
            <mxPoint x="-24" y="296.5" as="sourcePoint" />
            <mxPoint x="76" y="196.5" as="targetPoint" />
          </mxGeometry>
        </mxCell>
        <mxCell id="1453" value="" style="edgeStyle=none;endArrow=none;strokeWidth=3;strokeColor=#64BBE2;html=1;" parent="1" source="1353" target="1441" edge="1">
          <mxGeometry x="-24" y="196.5" width="100" height="100" as="geometry">
            <mxPoint x="-24" y="296.5" as="sourcePoint" />
            <mxPoint x="76" y="196.5" as="targetPoint" />
          </mxGeometry>
        </mxCell>
        <mxCell id="1457" value="Psbs" style="rounded=1;fillColor=#a29dc5;strokeColor=none;strokeWidth=3;shadow=0;html=1;fontColor=#FFFFFF;" parent="1" vertex="1">
          <mxGeometry x="1821" y="1110.5" width="120" height="40" as="geometry" />
        </mxCell>
        <mxCell id="1458" value="Aktivierung durch starke &lt;br&gt;Erhöhung der Lichintensitäten" style="rounded=1;fillColor=#a29dc5;strokeColor=none;strokeWidth=3;shadow=0;html=1;fontColor=#FFFFFF;" parent="1" vertex="1">
          <mxGeometry x="1682" y="1320" width="179" height="48.5" as="geometry" />
        </mxCell>
        <mxCell id="1459" value="CP29-CP24-LHCII &lt;br&gt;Superkomplexe" style="rounded=1;fillColor=#a29dc5;strokeColor=none;strokeWidth=3;shadow=0;html=1;fontColor=#FFFFFF;" parent="1" vertex="1">
          <mxGeometry x="2061" y="1194" width="120" height="40" as="geometry" />
        </mxCell>
        <mxCell id="1460" value="Mechanismen" style="rounded=1;fillColor=#a29dc5;strokeColor=none;strokeWidth=3;shadow=0;html=1;fontColor=#FFFFFF;" parent="1" vertex="1">
          <mxGeometry x="1901" y="1194" width="120" height="40" as="geometry" />
        </mxCell>
        <mxCell id="1461" value="Steigender Zeoxantin Gehalt, &lt;br&gt;fallender Violaxantin Gehalt" style="rounded=1;fillColor=#a29dc5;strokeColor=none;strokeWidth=3;shadow=0;html=1;fontColor=#FFFFFF;" parent="1" vertex="1">
          <mxGeometry x="1990" y="1112" width="169" height="38.5" as="geometry" />
        </mxCell>
        <mxCell id="1462" value="Aggregierte LHCs &lt;br&gt;mittels Luthein" style="rounded=1;fillColor=#a29dc5;strokeColor=none;strokeWidth=3;shadow=0;html=1;fontColor=#FFFFFF;" parent="1" vertex="1">
          <mxGeometry x="1901" y="1261.5" width="120" height="40" as="geometry" />
        </mxCell>
        <mxCell id="1463" value="" style="edgeStyle=none;endArrow=none;strokeWidth=3;strokeColor=#A29DC5;html=1;" parent="1" source="1354" target="1460" edge="1">
          <mxGeometry x="251" y="-103.5" width="100" height="100" as="geometry">
            <mxPoint x="251" y="-3.5" as="sourcePoint" />
            <mxPoint x="351" y="-103.5" as="targetPoint" />
          </mxGeometry>
        </mxCell>
        <mxCell id="1464" value="" style="edgeStyle=none;endArrow=none;strokeWidth=3;strokeColor=#A29DC5;html=1;" parent="1" source="1460" target="1461" edge="1">
          <mxGeometry x="251" y="-103.5" width="100" height="100" as="geometry">
            <mxPoint x="251" y="-3.5" as="sourcePoint" />
            <mxPoint x="351" y="-103.5" as="targetPoint" />
          </mxGeometry>
        </mxCell>
        <mxCell id="1465" value="" style="edgeStyle=none;endArrow=none;strokeWidth=3;strokeColor=#A29DC5;html=1;" parent="1" source="1354" target="1458" edge="1">
          <mxGeometry x="251" y="-103.5" width="100" height="100" as="geometry">
            <mxPoint x="251" y="-3.5" as="sourcePoint" />
            <mxPoint x="351" y="-103.5" as="targetPoint" />
          </mxGeometry>
        </mxCell>
        <mxCell id="1466" value="" style="edgeStyle=none;endArrow=none;strokeWidth=3;strokeColor=#A29DC5;html=1;" parent="1" source="1460" target="1462" edge="1">
          <mxGeometry x="251" y="-103.5" width="100" height="100" as="geometry">
            <mxPoint x="251" y="-3.5" as="sourcePoint" />
            <mxPoint x="351" y="-103.5" as="targetPoint" />
          </mxGeometry>
        </mxCell>
        <mxCell id="1467" value="" style="edgeStyle=none;endArrow=none;strokeWidth=3;strokeColor=#A29DC5;html=1;" parent="1" source="1460" target="1457" edge="1">
          <mxGeometry x="251" y="-103.5" width="100" height="100" as="geometry">
            <mxPoint x="251" y="-3.5" as="sourcePoint" />
            <mxPoint x="351" y="-103.5" as="targetPoint" />
          </mxGeometry>
        </mxCell>
        <mxCell id="1468" value="Anterograd&lt;br&gt;(Kern zum Plastid)" style="rounded=1;fillColor=#f5af58;strokeColor=none;strokeWidth=3;shadow=0;html=1;fontColor=#FFFFFF;" parent="1" vertex="1">
          <mxGeometry x="1358.5" y="1274" width="120" height="40" as="geometry" />
        </mxCell>
        <mxCell id="1469" value="LHCII&lt;br&gt;MG-proto IX (Chlorophyll Vorstufe)&lt;br&gt;GUN1 (Signalprotein)" style="rounded=1;fillColor=#f5af58;strokeColor=none;strokeWidth=3;shadow=0;html=1;fontColor=#FFFFFF;" parent="1" vertex="1">
          <mxGeometry x="1255.25" y="1110.5" width="206.5" height="43.5" as="geometry" />
        </mxCell>
        <mxCell id="1478" value="Retrograd&lt;br&gt;(Plastid zum Kern)" style="rounded=1;fillColor=#f5af58;strokeColor=none;strokeWidth=3;shadow=0;html=1;fontColor=#FFFFFF;" parent="1" vertex="1">
          <mxGeometry x="1298.5" y="1194" width="120" height="40" as="geometry" />
        </mxCell>
        <mxCell id="1479" value="" style="edgeStyle=none;endArrow=none;strokeWidth=3;strokeColor=#F5AF58;html=1;" parent="1" source="1355" target="1478" edge="1">
          <mxGeometry x="243.5" y="39" width="100" height="100" as="geometry">
            <mxPoint x="243.5" y="139" as="sourcePoint" />
            <mxPoint x="343.5" y="39" as="targetPoint" />
          </mxGeometry>
        </mxCell>
        <mxCell id="1480" value="" style="edgeStyle=none;endArrow=none;strokeWidth=3;strokeColor=#F5AF58;html=1;" parent="1" source="1355" target="1468" edge="1">
          <mxGeometry x="243.5" y="39" width="100" height="100" as="geometry">
            <mxPoint x="243.5" y="139" as="sourcePoint" />
            <mxPoint x="343.5" y="39" as="targetPoint" />
          </mxGeometry>
        </mxCell>
        <mxCell id="1481" value="" style="edgeStyle=none;endArrow=none;strokeWidth=3;strokeColor=#F5AF58;html=1;" parent="1" source="1478" target="1469" edge="1">
          <mxGeometry x="243.5" y="39" width="100" height="100" as="geometry">
            <mxPoint x="243.5" y="139" as="sourcePoint" />
            <mxPoint x="343.5" y="39" as="targetPoint" />
          </mxGeometry>
        </mxCell>
        <mxCell id="1490" value="Transport über&lt;br&gt;Envelope" style="rounded=1;fillColor=#f08e81;strokeColor=none;strokeWidth=3;shadow=0;html=1;fontColor=#FFFFFF;" parent="1" vertex="1">
          <mxGeometry x="623.5" y="1006.5" width="120" height="40" as="geometry" />
        </mxCell>
        <mxCell id="1491" value="TIC/TOC&lt;br&gt;(energieabhängig)" style="rounded=1;fillColor=#f08e81;strokeColor=none;strokeWidth=3;shadow=0;html=1;fontColor=#FFFFFF;" parent="1" vertex="1">
          <mxGeometry x="488.5" y="1011.5" width="120" height="40" as="geometry" />
        </mxCell>
        <mxCell id="1492" value="Transport &lt;br&gt;Thylakoidmembran" style="rounded=1;fillColor=#f08e81;strokeColor=none;strokeWidth=3;shadow=0;html=1;fontColor=#FFFFFF;" parent="1" vertex="1">
          <mxGeometry x="403.5" y="1211.5" width="120" height="40" as="geometry" />
        </mxCell>
        <mxCell id="1493" value="Einbau in &lt;br&gt;Thylakoidmembran" style="rounded=1;fillColor=#f08e81;strokeColor=none;strokeWidth=3;shadow=0;html=1;fontColor=#FFFFFF;" parent="1" vertex="1">
          <mxGeometry x="403.5" y="1154" width="120" height="40" as="geometry" />
        </mxCell>
        <mxCell id="1494" value="Transport in das&lt;br&gt;Lumen" style="rounded=1;fillColor=#f08e81;strokeColor=none;strokeWidth=3;shadow=0;html=1;fontColor=#FFFFFF;" parent="1" vertex="1">
          <mxGeometry x="400.03999999999996" y="1281.5" width="120" height="40" as="geometry" />
        </mxCell>
        <mxCell id="1495" value="spontan" style="rounded=1;fillColor=#f08e81;strokeColor=none;strokeWidth=3;shadow=0;html=1;fontColor=#FFFFFF;" parent="1" vertex="1">
          <mxGeometry x="403.5" y="1090" width="120" height="40" as="geometry" />
        </mxCell>
        <mxCell id="1496" value="cpSRP&lt;br&gt;(energieabhängig)" style="rounded=1;fillColor=#f08e81;strokeColor=none;strokeWidth=3;shadow=0;html=1;fontColor=#FFFFFF;" parent="1" vertex="1">
          <mxGeometry x="253.5" y="1154" width="120" height="40" as="geometry" />
        </mxCell>
        <mxCell id="1497" value="Tat&lt;br&gt;(gefaltet, pH abhhängig)" style="rounded=1;fillColor=#f08e81;strokeColor=none;strokeWidth=3;shadow=0;html=1;fontColor=#FFFFFF;" parent="1" vertex="1">
          <mxGeometry x="220" y="1281.5" width="153.5" height="38.5" as="geometry" />
        </mxCell>
        <mxCell id="1498" value="Sec&lt;br&gt;(ungefaltet, energieabhängig)" style="rounded=1;fillColor=#f08e81;strokeColor=none;strokeWidth=3;shadow=0;html=1;fontColor=#FFFFFF;" parent="1" vertex="1">
          <mxGeometry x="400.04" y="1349" width="149.96" height="31" as="geometry" />
        </mxCell>
        <mxCell id="1499" value="Sekundäre &lt;br&gt;Endosymbionten&lt;br&gt;(3-4 Hüllmembranen)" style="rounded=1;fillColor=#f08e81;strokeColor=none;strokeWidth=3;shadow=0;html=1;fontColor=#FFFFFF;" parent="1" vertex="1">
          <mxGeometry x="718.5" y="1321.5" width="120" height="40" as="geometry" />
        </mxCell>
        <mxCell id="1501" value="1. CER (chloroplast ER)&lt;br&gt;mit Kern ER verbunden&lt;br&gt;Proteine direkt hineintranslatiert" style="rounded=1;fillColor=#f08e81;strokeColor=none;strokeWidth=3;shadow=0;html=1;fontColor=#FFFFFF;" parent="1" vertex="1">
          <mxGeometry x="690.25" y="1211.5" width="176.5" height="44" as="geometry" />
        </mxCell>
        <mxCell id="1502" value="" style="edgeStyle=none;endArrow=none;strokeWidth=3;strokeColor=#F08E81;html=1;" parent="1" source="1499" target="1501" edge="1">
          <mxGeometry x="188.5" y="51.5" width="100" height="100" as="geometry">
            <mxPoint x="188.5" y="151.5" as="sourcePoint" />
            <mxPoint x="288.5" y="51.5" as="targetPoint" />
          </mxGeometry>
        </mxCell>
        <mxCell id="1503" value="" style="edgeStyle=none;endArrow=none;strokeWidth=3;strokeColor=#F08E81;html=1;" parent="1" source="1356" target="1490" edge="1">
          <mxGeometry x="188.5" y="51.5" width="100" height="100" as="geometry">
            <mxPoint x="188.5" y="151.5" as="sourcePoint" />
            <mxPoint x="288.5" y="51.5" as="targetPoint" />
          </mxGeometry>
        </mxCell>
        <mxCell id="1504" value="" style="edgeStyle=none;endArrow=none;strokeWidth=3;strokeColor=#F08E81;html=1;" parent="1" source="1490" target="1491" edge="1">
          <mxGeometry x="188.5" y="51.5" width="100" height="100" as="geometry">
            <mxPoint x="188.5" y="151.5" as="sourcePoint" />
            <mxPoint x="288.5" y="51.5" as="targetPoint" />
          </mxGeometry>
        </mxCell>
        <mxCell id="1505" value="" style="edgeStyle=none;endArrow=none;strokeWidth=3;strokeColor=#F08E81;html=1;" parent="1" source="1356" target="1492" edge="1">
          <mxGeometry x="188.5" y="51.5" width="100" height="100" as="geometry">
            <mxPoint x="188.5" y="151.5" as="sourcePoint" />
            <mxPoint x="288.5" y="51.5" as="targetPoint" />
          </mxGeometry>
        </mxCell>
        <mxCell id="1506" value="" style="edgeStyle=none;endArrow=none;strokeWidth=3;strokeColor=#F08E81;html=1;" parent="1" source="1492" target="1493" edge="1">
          <mxGeometry x="60.5" y="124.5" width="100" height="100" as="geometry">
            <mxPoint x="295.5" y="1166.0951742627344" as="sourcePoint" />
            <mxPoint x="160.5" y="124.5" as="targetPoint" />
          </mxGeometry>
        </mxCell>
        <mxCell id="1507" value="" style="edgeStyle=none;endArrow=none;strokeWidth=3;strokeColor=#F08E81;html=1;" parent="1" source="1492" target="1494" edge="1">
          <mxGeometry x="60.5" y="124.5" width="100" height="100" as="geometry">
            <mxPoint x="347.5" y="1179.5" as="sourcePoint" />
            <mxPoint x="160.5" y="124.5" as="targetPoint" />
          </mxGeometry>
        </mxCell>
        <mxCell id="1508" value="" style="edgeStyle=none;endArrow=none;strokeWidth=3;strokeColor=#F08E81;html=1;" parent="1" source="1493" target="1495" edge="1">
          <mxGeometry x="60.5" y="124.5" width="100" height="100" as="geometry">
            <mxPoint x="60.5" y="224.5" as="sourcePoint" />
            <mxPoint x="160.5" y="124.5" as="targetPoint" />
          </mxGeometry>
        </mxCell>
        <mxCell id="1509" value="" style="edgeStyle=none;endArrow=none;strokeWidth=3;strokeColor=#F08E81;html=1;" parent="1" source="1493" target="1496" edge="1">
          <mxGeometry x="60.5" y="124.5" width="100" height="100" as="geometry">
            <mxPoint x="60.5" y="224.5" as="sourcePoint" />
            <mxPoint x="160.5" y="124.5" as="targetPoint" />
          </mxGeometry>
        </mxCell>
        <mxCell id="1510" value="" style="edgeStyle=none;endArrow=none;strokeWidth=3;strokeColor=#F08E81;html=1;" parent="1" source="1494" target="1497" edge="1">
          <mxGeometry x="60.5" y="124.5" width="100" height="100" as="geometry">
            <mxPoint x="60.5" y="224.5" as="sourcePoint" />
            <mxPoint x="160.5" y="124.5" as="targetPoint" />
          </mxGeometry>
        </mxCell>
        <mxCell id="1511" value="" style="edgeStyle=none;endArrow=none;strokeWidth=3;strokeColor=#F08E81;html=1;" parent="1" source="1494" target="1498" edge="1">
          <mxGeometry x="60.5" y="124.5" width="100" height="100" as="geometry">
            <mxPoint x="60.5" y="224.5" as="sourcePoint" />
            <mxPoint x="160.5" y="124.5" as="targetPoint" />
          </mxGeometry>
        </mxCell>
        <mxCell id="1512" value="" style="edgeStyle=none;endArrow=none;strokeWidth=3;strokeColor=#F08E81;html=1;" parent="1" source="1356" target="1499" edge="1">
          <mxGeometry x="188.5" y="51.5" width="100" height="100" as="geometry">
            <mxPoint x="188.5" y="151.5" as="sourcePoint" />
            <mxPoint x="288.5" y="51.5" as="targetPoint" />
          </mxGeometry>
        </mxCell>
        <mxCell id="1515" value="Planzliche Biochemie" style="ellipse;whiteSpace=wrap;html=1;shadow=0;fontFamily=Helvetica;fontSize=30;fontColor=#2F5B7C;align=center;strokeColor=#2F5B7C;strokeWidth=6;fillColor=#FFFFFF;fontStyle=1;gradientColor=none;" parent="1" vertex="1">
          <mxGeometry x="961" y="676.5" width="270" height="270" as="geometry" />
        </mxCell>
        <mxCell id="1516" value="Plastidäres Genom" style="ellipse;whiteSpace=wrap;html=1;shadow=0;fontFamily=Helvetica;fontSize=20;fontColor=#FFFFFF;align=center;strokeWidth=3;fillColor=#736ca8;strokeColor=none;" parent="1" vertex="1">
          <mxGeometry x="312" y="721.5" width="120" height="120" as="geometry" />
        </mxCell>
        <mxCell id="1517" value="bakterielle &lt;br&gt;Eigenschaften" style="rounded=1;fillColor=#a29dc5;strokeColor=none;strokeWidth=3;shadow=0;html=1;fontColor=#FFFFFF;" parent="1" vertex="1">
          <mxGeometry x="152" y="636.5" width="120" height="40" as="geometry" />
        </mxCell>
        <mxCell id="1518" value="Histonfrei" style="rounded=1;fillColor=#a29dc5;strokeColor=none;strokeWidth=3;shadow=0;html=1;fontColor=#FFFFFF;" parent="1" vertex="1">
          <mxGeometry x="298.5" y="636.5" width="120" height="40" as="geometry" />
        </mxCell>
        <mxCell id="1519" value="kein 5&#39;-Methylcytosin" style="rounded=1;fillColor=#a29dc5;strokeColor=none;strokeWidth=3;shadow=0;html=1;fontColor=#FFFFFF;" parent="1" vertex="1">
          <mxGeometry x="152" y="561.5" width="120" height="40" as="geometry" />
        </mxCell>
        <mxCell id="1520" value="GVOs" style="rounded=1;fillColor=#a29dc5;strokeColor=none;strokeWidth=3;shadow=0;html=1;fontColor=#FFFFFF;" parent="1" vertex="1">
          <mxGeometry x="558.5" y="706.5" width="120" height="40" as="geometry" />
        </mxCell>
        <mxCell id="1521" value="RNA-Editing" style="rounded=1;fillColor=#a29dc5;strokeColor=none;strokeWidth=3;shadow=0;html=1;fontColor=#FFFFFF;" parent="1" vertex="1">
          <mxGeometry x="100" y="926.5" width="120" height="40" as="geometry" />
        </mxCell>
        <mxCell id="1522" value="Zirkulär" style="rounded=1;fillColor=#a29dc5;strokeColor=none;strokeWidth=3;shadow=0;html=1;fontColor=#FFFFFF;" parent="1" vertex="1">
          <mxGeometry y="636.5" width="120" height="40" as="geometry" />
        </mxCell>
        <mxCell id="1523" value="Introns" style="rounded=1;fillColor=#a29dc5;strokeColor=none;strokeWidth=3;shadow=0;html=1;fontColor=#FFFFFF;" parent="1" vertex="1">
          <mxGeometry x="261.5" y="976.5" width="120" height="40" as="geometry" />
        </mxCell>
        <mxCell id="1524" value="eukaryotischen &lt;br&gt;Eigenschaften" style="rounded=1;fillColor=#a29dc5;strokeColor=none;strokeWidth=3;shadow=0;html=1;fontColor=#FFFFFF;" parent="1" vertex="1">
          <mxGeometry x="261.5" y="891.5" width="120" height="40" as="geometry" />
        </mxCell>
        <mxCell id="1525" value="large/small single &lt;br&gt;copy region flankiert &lt;br&gt;von inverted repeats" style="rounded=1;fillColor=#a29dc5;strokeColor=none;strokeWidth=3;shadow=0;html=1;fontColor=#FFFFFF;" parent="1" vertex="1">
          <mxGeometry x="-40" y="757.25" width="128" height="58.5" as="geometry" />
        </mxCell>
        <mxCell id="1526" value="Gegenstrangcodierung" style="rounded=1;fillColor=#a29dc5;strokeColor=none;strokeWidth=3;shadow=0;html=1;fontColor=#FFFFFF;" parent="1" vertex="1">
          <mxGeometry x="117" y="836.5" width="120" height="40" as="geometry" />
        </mxCell>
        <mxCell id="1527" value="Operonstruktur" style="rounded=1;fillColor=#a29dc5;strokeColor=none;strokeWidth=3;shadow=0;html=1;fontColor=#FFFFFF;" parent="1" vertex="1">
          <mxGeometry x="117" y="766.5" width="120" height="40" as="geometry" />
        </mxCell>
        <mxCell id="1528" value="" style="edgeStyle=none;endArrow=none;strokeWidth=3;strokeColor=#A29DC5;html=1;" parent="1" source="1516" target="1517" edge="1">
          <mxGeometry x="-1498" y="-303.5" width="100" height="100" as="geometry">
            <mxPoint x="-1498" y="-203.5" as="sourcePoint" />
            <mxPoint x="-1398" y="-303.5" as="targetPoint" />
          </mxGeometry>
        </mxCell>
        <mxCell id="1529" value="Genanordnung" style="rounded=1;fillColor=#a29dc5;strokeColor=none;strokeWidth=3;shadow=0;html=1;fontColor=#FFFFFF;" parent="1" vertex="1">
          <mxGeometry x="117" y="696.5" width="120" height="40" as="geometry" />
        </mxCell>
        <mxCell id="1530" value="" style="edgeStyle=none;endArrow=none;strokeWidth=3;strokeColor=#A29DC5;html=1;" parent="1" source="1517" target="1518" edge="1">
          <mxGeometry x="-1548" y="-288.5" width="100" height="100" as="geometry">
            <mxPoint x="-1548" y="-188.5" as="sourcePoint" />
            <mxPoint x="-1448" y="-288.5" as="targetPoint" />
          </mxGeometry>
        </mxCell>
        <mxCell id="1531" value="" style="edgeStyle=none;endArrow=none;strokeWidth=3;strokeColor=#A29DC5;html=1;" parent="1" source="1517" target="1519" edge="1">
          <mxGeometry x="-1548" y="-288.5" width="100" height="100" as="geometry">
            <mxPoint x="-1548" y="-188.5" as="sourcePoint" />
            <mxPoint x="-1448" y="-288.5" as="targetPoint" />
          </mxGeometry>
        </mxCell>
        <mxCell id="1532" value="" style="edgeStyle=none;endArrow=none;strokeWidth=3;strokeColor=#A29DC5;html=1;" parent="1" source="1516" target="1520" edge="1">
          <mxGeometry x="-1498" y="-303.5" width="100" height="100" as="geometry">
            <mxPoint x="-1498" y="-203.5" as="sourcePoint" />
            <mxPoint x="-1398" y="-303.5" as="targetPoint" />
          </mxGeometry>
        </mxCell>
        <mxCell id="1533" value="" style="edgeStyle=none;endArrow=none;strokeWidth=3;strokeColor=#A29DC5;html=1;" parent="1" source="1524" target="1521" edge="1">
          <mxGeometry x="-1658.5" y="-303.5" width="100" height="100" as="geometry">
            <mxPoint x="-1658.5" y="-203.5" as="sourcePoint" />
            <mxPoint x="-1558.5" y="-303.5" as="targetPoint" />
          </mxGeometry>
        </mxCell>
        <mxCell id="1534" value="" style="edgeStyle=none;endArrow=none;strokeWidth=3;strokeColor=#A29DC5;html=1;" parent="1" source="1517" target="1522" edge="1">
          <mxGeometry x="-1548" y="-288.5" width="100" height="100" as="geometry">
            <mxPoint x="-1548" y="-188.5" as="sourcePoint" />
            <mxPoint x="-1448" y="-288.5" as="targetPoint" />
          </mxGeometry>
        </mxCell>
        <mxCell id="1535" value="" style="edgeStyle=none;endArrow=none;strokeWidth=3;strokeColor=#A29DC5;html=1;" parent="1" source="1524" target="1523" edge="1">
          <mxGeometry x="-1658.5" y="-303.5" width="100" height="100" as="geometry">
            <mxPoint x="-1658.5" y="-203.5" as="sourcePoint" />
            <mxPoint x="-1558.5" y="-303.5" as="targetPoint" />
          </mxGeometry>
        </mxCell>
        <mxCell id="1536" value="" style="edgeStyle=none;endArrow=none;strokeWidth=3;strokeColor=#A29DC5;html=1;" parent="1" source="1516" target="1524" edge="1">
          <mxGeometry x="-1498" y="-303.5" width="100" height="100" as="geometry">
            <mxPoint x="-1498" y="-203.5" as="sourcePoint" />
            <mxPoint x="-1398" y="-303.5" as="targetPoint" />
          </mxGeometry>
        </mxCell>
        <mxCell id="1537" value="" style="edgeStyle=none;endArrow=none;strokeWidth=3;strokeColor=#A29DC5;html=1;" parent="1" source="1527" target="1525" edge="1">
          <mxGeometry x="-1418" y="-338.5" width="100" height="100" as="geometry">
            <mxPoint x="-1418" y="-238.5" as="sourcePoint" />
            <mxPoint x="-1318" y="-338.5" as="targetPoint" />
          </mxGeometry>
        </mxCell>
        <mxCell id="1538" value="" style="edgeStyle=none;endArrow=none;strokeWidth=3;strokeColor=#A29DC5;html=1;" parent="1" source="1527" target="1526" edge="1">
          <mxGeometry x="-1418" y="-338.5" width="100" height="100" as="geometry">
            <mxPoint x="-1418" y="-238.5" as="sourcePoint" />
            <mxPoint x="-1318" y="-338.5" as="targetPoint" />
          </mxGeometry>
        </mxCell>
        <mxCell id="1539" value="" style="edgeStyle=none;endArrow=none;strokeWidth=3;strokeColor=#A29DC5;html=1;" parent="1" source="1516" target="1527" edge="1">
          <mxGeometry x="-1498" y="-303.5" width="100" height="100" as="geometry">
            <mxPoint x="-1498" y="-203.5" as="sourcePoint" />
            <mxPoint x="-1398" y="-303.5" as="targetPoint" />
          </mxGeometry>
        </mxCell>
        <mxCell id="1540" value="" style="edgeStyle=none;endArrow=none;strokeWidth=3;strokeColor=#A29DC5;html=1;" parent="1" source="1527" target="1529" edge="1">
          <mxGeometry x="-1418" y="-338.5" width="100" height="100" as="geometry">
            <mxPoint x="-1418" y="-238.5" as="sourcePoint" />
            <mxPoint x="-1318" y="-338.5" as="targetPoint" />
          </mxGeometry>
        </mxCell>
        <mxCell id="1541" value="" style="edgeStyle=none;endArrow=none;strokeWidth=3;strokeColor=#A29DC5;html=1;" parent="1" source="1460" target="1459" edge="1">
          <mxGeometry x="-1174" y="-408.5" width="100" height="100" as="geometry">
            <mxPoint x="-1174" y="-308.5" as="sourcePoint" />
            <mxPoint x="-1074" y="-408.5" as="targetPoint" />
          </mxGeometry>
        </mxCell>
        <mxCell id="1542" style="edgeStyle=none;rounded=0;html=1;exitX=0.5;exitY=1;endArrow=none;endFill=0;jettySize=auto;orthogonalLoop=1;strokeColor=#736CA8;strokeWidth=2;fillColor=#64bbe2;fontSize=20;fontColor=#23445D;" parent="1" source="1529" target="1529" edge="1">
          <mxGeometry relative="1" as="geometry" />
        </mxCell>
        <mxCell id="6x3eGABsDxq7Kf3F9K57-1542" value="Nachteile:&lt;br&gt;Horizontaler Gentransfer &lt;br&gt;und Verwilderung, langwierig: &lt;br&gt;homoplastidäre Zellen" style="rounded=1;fillColor=#a29dc5;strokeColor=none;strokeWidth=3;shadow=0;html=1;fontColor=#FFFFFF;" parent="1" vertex="1">
          <mxGeometry x="400.04" y="553" width="168.5" height="57" as="geometry" />
        </mxCell>
        <mxCell id="6x3eGABsDxq7Kf3F9K57-1543" value="" style="edgeStyle=none;endArrow=none;strokeWidth=3;strokeColor=#A29DC5;html=1;" parent="1" source="6x3eGABsDxq7Kf3F9K57-1546" target="6x3eGABsDxq7Kf3F9K57-1542" edge="1">
          <mxGeometry x="-1264.79" y="-8.5" width="100" height="100" as="geometry">
            <mxPoint x="656.7942768023044" y="1045.8558751669477" as="sourcePoint" />
            <mxPoint x="-1164.79" y="-8.5" as="targetPoint" />
          </mxGeometry>
        </mxCell>
        <mxCell id="6x3eGABsDxq7Kf3F9K57-1544" value="Homologe &lt;br&gt;Rekombination" style="rounded=1;fillColor=#a29dc5;strokeColor=none;strokeWidth=3;shadow=0;html=1;fontColor=#FFFFFF;" parent="1" vertex="1">
          <mxGeometry x="612.79" y="555" width="120" height="40" as="geometry" />
        </mxCell>
        <mxCell id="6x3eGABsDxq7Kf3F9K57-1545" value="" style="edgeStyle=none;endArrow=none;strokeWidth=3;strokeColor=#A29DC5;html=1;" parent="1" source="6x3eGABsDxq7Kf3F9K57-1546" target="6x3eGABsDxq7Kf3F9K57-1544" edge="1">
          <mxGeometry x="-1294.33" y="-62.860000000000014" width="100" height="100" as="geometry">
            <mxPoint x="627.2542768023044" y="991.4958751669477" as="sourcePoint" />
            <mxPoint x="-1194.33" y="-62.860000000000014" as="targetPoint" />
          </mxGeometry>
        </mxCell>
        <mxCell id="6x3eGABsDxq7Kf3F9K57-1546" value="Plastom &lt;br&gt;Transformation" style="rounded=1;fillColor=#a29dc5;strokeColor=none;strokeWidth=3;shadow=0;html=1;fontColor=#FFFFFF;" parent="1" vertex="1">
          <mxGeometry x="558.5" y="638.5" width="120" height="40" as="geometry" />
        </mxCell>
        <mxCell id="6x3eGABsDxq7Kf3F9K57-1547" value="" style="edgeStyle=none;endArrow=none;strokeWidth=3;strokeColor=#A29DC5;html=1;" parent="1" source="1520" target="6x3eGABsDxq7Kf3F9K57-1546" edge="1">
          <mxGeometry x="-1339.79" y="-158.5" width="100" height="100" as="geometry">
            <mxPoint x="581.7942768023045" y="895.8558751669477" as="sourcePoint" />
            <mxPoint x="-1239.79" y="-158.5" as="targetPoint" />
          </mxGeometry>
        </mxCell>
        <mxCell id="6x3eGABsDxq7Kf3F9K57-1548" value="maternale Vererbung&lt;br&gt;kein Vertikaler Gentransfer" style="rounded=1;fillColor=#a29dc5;strokeColor=none;strokeWidth=3;shadow=0;html=1;fontColor=#FFFFFF;" parent="1" vertex="1">
          <mxGeometry x="753.54" y="635" width="146.5" height="43.5" as="geometry" />
        </mxCell>
        <mxCell id="6x3eGABsDxq7Kf3F9K57-1549" value="" style="edgeStyle=none;endArrow=none;strokeWidth=3;strokeColor=#A29DC5;html=1;" parent="1" source="6x3eGABsDxq7Kf3F9K57-1546" target="6x3eGABsDxq7Kf3F9K57-1548" edge="1">
          <mxGeometry x="-1320.71" y="-113.5" width="100" height="100" as="geometry">
            <mxPoint x="600.8742768023044" y="940.8558751669477" as="sourcePoint" />
            <mxPoint x="-1220.71" y="-113.5" as="targetPoint" />
          </mxGeometry>
        </mxCell>
        <mxCell id="6x3eGABsDxq7Kf3F9K57-1551" value="Nachteile:&lt;br&gt;Horizontaler Gentransfer,&lt;br&gt;Verwilderung, vertikaler &lt;br&gt;Gentransfer" style="rounded=1;fillColor=#a29dc5;strokeColor=none;strokeWidth=3;shadow=0;html=1;fontColor=#FFFFFF;" parent="1" vertex="1">
          <mxGeometry x="423.5" y="859.5" width="145.04" height="62" as="geometry" />
        </mxCell>
        <mxCell id="6x3eGABsDxq7Kf3F9K57-1552" value="" style="edgeStyle=none;endArrow=none;strokeWidth=3;strokeColor=#A29DC5;html=1;" parent="1" source="6x3eGABsDxq7Kf3F9K57-1555" target="6x3eGABsDxq7Kf3F9K57-1551" edge="1">
          <mxGeometry x="-1281.33" y="221.5" width="100" height="100" as="geometry">
            <mxPoint x="640.2542768023044" y="1275.8558751669477" as="sourcePoint" />
            <mxPoint x="-1181.33" y="221.5" as="targetPoint" />
          </mxGeometry>
        </mxCell>
        <mxCell id="6x3eGABsDxq7Kf3F9K57-1553" value="keine Homologe Rekombination&lt;br&gt;nur gezielt möglich (z.B. CRISPR)" style="rounded=1;fillColor=#a29dc5;strokeColor=none;strokeWidth=3;shadow=0;html=1;fontColor=#FFFFFF;" parent="1" vertex="1">
          <mxGeometry x="558.5" y="933" width="193.75" height="43.5" as="geometry" />
        </mxCell>
        <mxCell id="6x3eGABsDxq7Kf3F9K57-1554" value="" style="edgeStyle=none;endArrow=none;strokeWidth=3;strokeColor=#A29DC5;html=1;" parent="1" source="6x3eGABsDxq7Kf3F9K57-1555" target="6x3eGABsDxq7Kf3F9K57-1553" edge="1">
          <mxGeometry x="-1310.87" y="167.14" width="100" height="100" as="geometry">
            <mxPoint x="610.7142768023044" y="1221.4958751669478" as="sourcePoint" />
            <mxPoint x="-1210.87" y="167.14" as="targetPoint" />
          </mxGeometry>
        </mxCell>
        <mxCell id="6x3eGABsDxq7Kf3F9K57-1555" value="nukleäre&lt;br&gt;Transformation" style="rounded=1;fillColor=#a29dc5;strokeColor=none;strokeWidth=3;shadow=0;html=1;fontColor=#FFFFFF;" parent="1" vertex="1">
          <mxGeometry x="596.25" y="865" width="120" height="40" as="geometry" />
        </mxCell>
        <mxCell id="6x3eGABsDxq7Kf3F9K57-1557" value="lange kreuzen für &lt;br&gt;Homozygotie" style="rounded=1;fillColor=#a29dc5;strokeColor=none;strokeWidth=3;shadow=0;html=1;fontColor=#FFFFFF;" parent="1" vertex="1">
          <mxGeometry x="737" y="865" width="146.5" height="43.5" as="geometry" />
        </mxCell>
        <mxCell id="6x3eGABsDxq7Kf3F9K57-1558" value="" style="edgeStyle=none;endArrow=none;strokeWidth=3;strokeColor=#A29DC5;html=1;" parent="1" source="6x3eGABsDxq7Kf3F9K57-1555" target="6x3eGABsDxq7Kf3F9K57-1557" edge="1">
          <mxGeometry x="-1337.25" y="116.5" width="100" height="100" as="geometry">
            <mxPoint x="584.3342768023044" y="1170.8558751669477" as="sourcePoint" />
            <mxPoint x="-1237.25" y="116.5" as="targetPoint" />
          </mxGeometry>
        </mxCell>
        <mxCell id="6x3eGABsDxq7Kf3F9K57-1559" value="" style="edgeStyle=none;endArrow=none;strokeWidth=3;strokeColor=#A29DC5;html=1;" parent="1" source="6x3eGABsDxq7Kf3F9K57-1555" target="1520" edge="1">
          <mxGeometry x="-1488" y="-293.5" width="100" height="100" as="geometry">
            <mxPoint x="440.60197474885763" y="778.6233329027173" as="sourcePoint" />
            <mxPoint x="568.5" y="749.8874239350912" as="targetPoint" />
          </mxGeometry>
        </mxCell>
        <mxCell id="6x3eGABsDxq7Kf3F9K57-1560" value="2. PPC (periplastidäres Kompartiment)&lt;br&gt;Proteine von CER durch ERAD &lt;br&gt;transportiert" style="rounded=1;fillColor=#f08e81;strokeColor=none;strokeWidth=3;shadow=0;html=1;fontColor=#FFFFFF;" parent="1" vertex="1">
          <mxGeometry x="860.25" y="1316.5" width="206.5" height="45" as="geometry" />
        </mxCell>
        <mxCell id="6x3eGABsDxq7Kf3F9K57-1561" value="" style="edgeStyle=none;endArrow=none;strokeWidth=3;strokeColor=#F08E81;html=1;" parent="1" source="1499" target="6x3eGABsDxq7Kf3F9K57-1560" edge="1">
          <mxGeometry x="198.5" y="61.5" width="100" height="100" as="geometry">
            <mxPoint x="688.2256459701612" y="1235.7687511442773" as="sourcePoint" />
            <mxPoint x="298.5" y="61.5" as="targetPoint" />
          </mxGeometry>
        </mxCell>
        <mxCell id="6x3eGABsDxq7Kf3F9K57-1563" value="3. weiterer Transport gleich wie &lt;br&gt;bei primären Endosymbionten &lt;br&gt;(TOC noch nicht geklärt)" style="rounded=1;fillColor=#f08e81;strokeColor=none;strokeWidth=3;shadow=0;html=1;fontColor=#FFFFFF;" parent="1" vertex="1">
          <mxGeometry x="680.25" y="1407.5" width="196.5" height="44" as="geometry" />
        </mxCell>
        <mxCell id="6x3eGABsDxq7Kf3F9K57-1564" value="" style="edgeStyle=none;endArrow=none;strokeWidth=3;strokeColor=#F08E81;html=1;" parent="1" source="1499" target="6x3eGABsDxq7Kf3F9K57-1563" edge="1">
          <mxGeometry x="208.5" y="71.5" width="100" height="100" as="geometry">
            <mxPoint x="848.5" y="1350.6891891891892" as="sourcePoint" />
            <mxPoint x="870.25" y="1350.3952702702704" as="targetPoint" />
          </mxGeometry>
        </mxCell>
        <mxCell id="MPsrmtgidOlGMuhGrePb-1542" value="" style="edgeStyle=none;endArrow=none;strokeWidth=3;strokeColor=#F08E81;html=1;" edge="1" parent="1" source="1418" target="1499">
          <mxGeometry x="41" y="116.5" width="100" height="100" as="geometry">
            <mxPoint x="1736.7363344051446" y="702.25" as="sourcePoint" />
            <mxPoint x="1706.2636655948554" y="731.5" as="targetPoint" />
          </mxGeometry>
        </mxCell>
        <mxCell id="MPsrmtgidOlGMuhGrePb-1543" value="" style="edgeStyle=none;endArrow=none;strokeWidth=3;strokeColor=#64BBE2;html=1;" edge="1" parent="1" source="1372" target="1376">
          <mxGeometry x="-11.500000000000014" y="-31" width="100" height="100" as="geometry">
            <mxPoint x="852.6068728281857" y="254.31395096330766" as="sourcePoint" />
            <mxPoint x="923.5" y="267.33333333333326" as="targetPoint" />
          </mxGeometry>
        </mxCell>
        <mxCell id="MPsrmtgidOlGMuhGrePb-1544" value="" style="edgeStyle=none;endArrow=none;strokeWidth=3;strokeColor=#64BBE2;html=1;" edge="1" parent="1" source="1372" target="1367">
          <mxGeometry x="-11.500000000000014" y="-31" width="100" height="100" as="geometry">
            <mxPoint x="760.9723878106793" y="294.41779889344775" as="sourcePoint" />
            <mxPoint x="706.4032258064517" y="379" as="targetPoint" />
          </mxGeometry>
        </mxCell>
        <mxCell id="MPsrmtgidOlGMuhGrePb-1550" value="strongly" style="rounded=1;fillColor=#64BBE2;strokeColor=none;strokeWidth=3;shadow=0;html=1;fontColor=#FFFFFF;" vertex="1" parent="1">
          <mxGeometry x="195" y="192.5" width="130" height="40" as="geometry" />
        </mxCell>
        <mxCell id="MPsrmtgidOlGMuhGrePb-1551" value="" style="edgeStyle=none;endArrow=none;strokeWidth=3;strokeColor=#64BBE2;html=1;" edge="1" parent="1" target="MPsrmtgidOlGMuhGrePb-1550" source="1369">
          <mxGeometry x="-10.000000000000014" y="31.19999999999999" width="100" height="100" as="geometry">
            <mxPoint x="735.8900958317099" y="316.49656395189567" as="sourcePoint" />
            <mxPoint x="90" y="31.19999999999999" as="targetPoint" />
          </mxGeometry>
        </mxCell>
        <mxCell id="MPsrmtgidOlGMuhGrePb-1553" value="lhcb1" style="rounded=1;fillColor=#64BBE2;strokeColor=none;strokeWidth=3;shadow=0;html=1;fontColor=#FFFFFF;" vertex="1" parent="1">
          <mxGeometry x="110" y="276.5" width="130" height="40" as="geometry" />
        </mxCell>
        <mxCell id="MPsrmtgidOlGMuhGrePb-1554" value="" style="edgeStyle=none;endArrow=none;strokeWidth=3;strokeColor=#64BBE2;html=1;" edge="1" parent="1" target="MPsrmtgidOlGMuhGrePb-1553" source="MPsrmtgidOlGMuhGrePb-1550">
          <mxGeometry x="95" y="159.7" width="100" height="100" as="geometry">
            <mxPoint x="431.09792284866444" y="192.5" as="sourcePoint" />
            <mxPoint x="195" y="159.7" as="targetPoint" />
          </mxGeometry>
        </mxCell>
        <mxCell id="MPsrmtgidOlGMuhGrePb-1555" value="lhcb2" style="rounded=1;fillColor=#64BBE2;strokeColor=none;strokeWidth=3;shadow=0;html=1;fontColor=#FFFFFF;" vertex="1" parent="1">
          <mxGeometry x="60" y="24" width="130" height="40" as="geometry" />
        </mxCell>
        <mxCell id="MPsrmtgidOlGMuhGrePb-1556" value="" style="edgeStyle=none;endArrow=none;strokeWidth=3;strokeColor=#64BBE2;html=1;" edge="1" parent="1" target="MPsrmtgidOlGMuhGrePb-1555" source="MPsrmtgidOlGMuhGrePb-1550">
          <mxGeometry x="-125" y="-60.30000000000001" width="100" height="100" as="geometry">
            <mxPoint x="211.09792284866444" y="-27.5" as="sourcePoint" />
            <mxPoint x="-25.000000000000014" y="-60.30000000000001" as="targetPoint" />
          </mxGeometry>
        </mxCell>
        <mxCell id="MPsrmtgidOlGMuhGrePb-1557" value="lhcb3" style="rounded=1;fillColor=#64BBE2;strokeColor=none;strokeWidth=3;shadow=0;html=1;fontColor=#FFFFFF;" vertex="1" parent="1">
          <mxGeometry x="70" y="-97.5" width="130" height="40" as="geometry" />
        </mxCell>
        <mxCell id="MPsrmtgidOlGMuhGrePb-1558" value="" style="edgeStyle=none;endArrow=none;strokeWidth=3;strokeColor=#64BBE2;html=1;" edge="1" parent="1" target="MPsrmtgidOlGMuhGrePb-1557" source="1368">
          <mxGeometry x="256.5" y="186.2" width="100" height="100" as="geometry">
            <mxPoint x="592.5979228486644" y="219" as="sourcePoint" />
            <mxPoint x="356.5" y="186.2" as="targetPoint" />
          </mxGeometry>
        </mxCell>
        <mxCell id="MPsrmtgidOlGMuhGrePb-1559" value="" style="edgeStyle=none;endArrow=none;strokeWidth=3;strokeColor=#64BBE2;html=1;" edge="1" parent="1" source="1368" target="MPsrmtgidOlGMuhGrePb-1555">
          <mxGeometry x="-115.00000000000001" y="-50.30000000000001" width="100" height="100" as="geometry">
            <mxPoint x="244.8633879781421" y="202.5" as="sourcePoint" />
            <mxPoint x="180.1366120218579" y="151" as="targetPoint" />
          </mxGeometry>
        </mxCell>
        <mxCell id="MPsrmtgidOlGMuhGrePb-1560" value="D1/D2&lt;br&gt;Reaktionszenrtum" style="rounded=1;fillColor=#64BBE2;strokeColor=none;strokeWidth=3;shadow=0;html=1;fontColor=#FFFFFF;" vertex="1" parent="1">
          <mxGeometry x="396.11" y="-221" width="161.75" height="43.5" as="geometry" />
        </mxCell>
        <mxCell id="MPsrmtgidOlGMuhGrePb-1561" value="CP43/CP47&lt;br&gt;Innere Lichtsammelantennen" style="rounded=1;fillColor=#64BBE2;strokeColor=none;strokeWidth=3;shadow=0;html=1;fontColor=#FFFFFF;" vertex="1" parent="1">
          <mxGeometry x="281.75" y="-277.5" width="161.75" height="43.5" as="geometry" />
        </mxCell>
        <mxCell id="MPsrmtgidOlGMuhGrePb-1562" value="CP24, CP26, CP29&lt;br&gt;Minoren Lichtsammelantennen&lt;br&gt;Monomere" style="rounded=1;fillColor=#64BBE2;strokeColor=none;strokeWidth=3;shadow=0;html=1;fontColor=#FFFFFF;" vertex="1" parent="1">
          <mxGeometry x="143.12" y="-171" width="161.75" height="43.5" as="geometry" />
        </mxCell>
        <mxCell id="MPsrmtgidOlGMuhGrePb-1563" value="" style="edgeStyle=none;endArrow=none;strokeWidth=3;strokeColor=#64BBE2;html=1;" edge="1" parent="1" source="1376" target="MPsrmtgidOlGMuhGrePb-1550">
          <mxGeometry x="-1.4210854715202004e-14" y="41.19999999999999" width="100" height="100" as="geometry">
            <mxPoint x="334.547038327526" y="99" as="sourcePoint" />
            <mxPoint x="280.4529616724735" y="202.5" as="targetPoint" />
          </mxGeometry>
        </mxCell>
        <mxCell id="MPsrmtgidOlGMuhGrePb-1564" value="" style="edgeStyle=none;endArrow=none;strokeWidth=3;strokeColor=#64BBE2;html=1;" edge="1" parent="1" source="1367" target="MPsrmtgidOlGMuhGrePb-1560">
          <mxGeometry x="-11.500000000000014" y="-31" width="100" height="100" as="geometry">
            <mxPoint x="498.8399433427762" y="-77.5" as="sourcePoint" />
            <mxPoint x="364.6600566572238" y="59" as="targetPoint" />
          </mxGeometry>
        </mxCell>
        <mxCell id="MPsrmtgidOlGMuhGrePb-1565" value="" style="edgeStyle=none;endArrow=none;strokeWidth=3;strokeColor=#64BBE2;html=1;" edge="1" parent="1" source="1367" target="MPsrmtgidOlGMuhGrePb-1561">
          <mxGeometry x="-1.5000000000000142" y="-21" width="100" height="100" as="geometry">
            <mxPoint x="511.63024523160766" y="-117.5" as="sourcePoint" />
            <mxPoint x="494.4558583106268" y="-167.5" as="targetPoint" />
          </mxGeometry>
        </mxCell>
        <mxCell id="MPsrmtgidOlGMuhGrePb-1566" value="" style="edgeStyle=none;endArrow=none;strokeWidth=3;strokeColor=#64BBE2;html=1;" edge="1" parent="1" source="1367" target="MPsrmtgidOlGMuhGrePb-1562">
          <mxGeometry x="8.499999999999986" y="-11" width="100" height="100" as="geometry">
            <mxPoint x="521.6302452316077" y="-107.5" as="sourcePoint" />
            <mxPoint x="504.4558583106268" y="-157.5" as="targetPoint" />
          </mxGeometry>
        </mxCell>
        <mxCell id="MPsrmtgidOlGMuhGrePb-1567" value="PsbS&lt;br&gt;Dimer" style="rounded=1;fillColor=#64BBE2;strokeColor=none;strokeWidth=3;shadow=0;html=1;fontColor=#FFFFFF;" vertex="1" parent="1">
          <mxGeometry x="70" y="-257.5" width="161.75" height="43.5" as="geometry" />
        </mxCell>
        <mxCell id="MPsrmtgidOlGMuhGrePb-1568" value="" style="edgeStyle=none;endArrow=none;strokeWidth=3;strokeColor=#64BBE2;html=1;" edge="1" parent="1" source="1367" target="MPsrmtgidOlGMuhGrePb-1567">
          <mxGeometry x="18.499999999999986" y="-1" width="100" height="100" as="geometry">
            <mxPoint x="453.5" y="-115.59242342826428" as="sourcePoint" />
            <mxPoint x="364.01544401544334" y="-140.5" as="targetPoint" />
          </mxGeometry>
        </mxCell>
      </root>
    </mxGraphModel>
  </diagram>
</mxfile>
